{"title":"How.To.Stop.Being.A.Loser.2011.DvDRiP.5.1.AC3.XViD-DQ1","uid":7032589,"size":2361487182,"categoryP":"video","categoryS":"movies","magnet":"?xt=urn:btih:1fd08772261bb436281d82e8e06819d4a4c4ebe9&amp;dn=How.To.Stop.Being.A.Loser.2011.DvDRiP.5.1.AC3.XViD-DQ1&amp;tr=udp%3A%2F%2Ftracker.openbittorrent.com%3A80&amp;tr=udp%3A%2F%2Fopen.demonii.com%3A1337&amp;tr=udp%3A%2F%2Ftracker.coppersurfer.tk%3A6969&amp;tr=udp%3A%2F%2Fexodus.desync.com%3A6969","seeders":0,"leechers":1,"uploader":"TvTeam","files":81,"time":1329266449,"description":". \n &lt;a href=&quot;\nhttp://www.torrenting.com&quot; rel=&quot;nofollow&quot; target=&quot;_NEW&quot;&gt;\nhttp://www.torrenting.com&lt;/a&gt;          :     Once &amp; For all ;)\n\n\n               www . Torrenting . Com \n\n(((((((((((((= Enjoy No RAR releases =))))))))))))))))))))\n\n\n...................................NFO:....................................\n\n.[IMG]http://i.imgur.com/xyM4H.jpg[/IMG]\n[color=yelow]\nINFO: [/color]\n\nTitle:         How.To.Stop.Being.A.Loser.2011.DvDRiP.5.1.AC3.XViD-DQ1\nLanguage:      English\nSubtitles:     NO\nFormat:        Xvid\nSample:        Yes\nIMDB:         &lt;a href=&quot; http://www.imdb.com/title/tt1727506/&quot; rel=&quot;nofollow&quot; target=&quot;_NEW&quot;&gt; http://www.imdb.com/title/tt1727506/&lt;/a&gt;\n[color=yelow]\nPlot: [/color]\nJames is useless with women, but his luck changes under the tutelage \nof pick-up artist, Ampersand. As James learns the art of seduction he \nbegins to wonder about Ampersand's intentions and questions what would \ntruly make him happy in life. \n[color=yelow]\nSource: [/color]\nVideo:         OWN DVDR\nAudio:         OWN DVDR\n\n[IMG]http://i.imgur.com/TfrQ5.jpg[/IMG]\n\n[color=yelow]\nFile Info: [/color]\n\nVideo:\nFormat                                   : MPEG-4 Visual\nFormat profile                           : Advanced Simple@L5\nFormat settings, BVOP                    : 2\nFormat settings, QPel                    : No\nFormat settings, GMC                     : No warppoints\nFormat settings, Matrix                  : Default (H.263)\nCodec ID                                 : XVID\nCodec ID/Hint                            : XviD\nDuration                                 : 1h 44mn\nBit rate                                 : 1 035 Kbps\nWidth                                    : 720 pixels\nHeight                                   : 304 pixels\nDisplay aspect ratio                     : 2.35:1\nFrame rate                               : 29.970 fps\nColor space                              : YUV\nChroma subsampling                       : 4:2:0\nBit depth                                : 8 bits\nScan type                                : Progressive\nCompression mode                         : Lossy\nBits/(Pixel*Frame)                       : 0.158\nStream size                              : 776 MiB (69%)\n\nAudio:\nID                                       : 1\nFormat                                   : AC-3\nFormat/Info                              : Audio Coding 3\nMode extension                           : CM (complete main)\nCodec ID                                 : 2000\nDuration                                 : 1h 44mn\nBit rate mode                            : Constant\nBit rate                                 : 448 Kbps\nChannel(s)                               : 6 channels\nChannel positions                        : Front: L C R, Side: L R, LFE\nSampling rate                            : 48.0 KHz\nBit depth                                : 16 bits\nCompression mode                         : Lossy\nDelay relative to video                  : 33ms\nStream size                              : 336 MiB (30%)\nAlignment                                : Split accross interleaves\nInterleave, duration                     : 500 ms (14.98 video frames)\nInterleave, preload duration             : 500 ms\n[color=yelow]\nScreens: [/color]\n\n[IMG]http://i.imgur.com/gVUPG.png[/IMG]\n[IMG]http://i.imgur.com/7TLzX.png[/IMG]\n[IMG]http://i.imgur.com/NblSs.png[/IMG]\n[IMG]http://i.imgur.com/YLXhw.png[/IMG]\n[IMG]http://i.imgur.com/92UPI.png[/IMG]","torrent":{"xt":"urn:btih:1fd08772261bb436281d82e8e06819d4a4c4ebe9","amp;dn":"How.To.Stop.Being.A.Loser.2011.DvDRiP.5.1.AC3.XViD-DQ1","amp;tr":["udp%3A%2F%2Ftracker.openbittorrent.com%3A80","udp%3A%2F%2Fopen.demonii.com%3A1337","udp%3A%2F%2Ftracker.coppersurfer.tk%3A6969","udp%3A%2F%2Fexodus.desync.com%3A6969"],"infoHash":"1fd08772261bb436281d82e8e06819d4a4c4ebe9","infoHashBuffer":{"type":"Buffer","data":[31,208,135,114,38,27,180,54,40,29,130,232,224,104,25,212,164,196,235,233]},"announce":[],"urlList":[]}}